<svg id="main_logo" data-name="main logo" xmlns="http://www.w3.org/2000/svg" viewBox="0 0 230.58 51.83"><g id="logo_light" data-name="logo light"><path d="M108.07,58.94a.81.81,0,0,1,.6.22.75.75,0,0,1,.23.57,4.26,4.26,0,0,1-.06.56l-1.44,10.6a1,1,0,0,1-.29.6.87.87,0,0,1-.61.23.9.9,0,0,1-.9-.7l-2.07-6.36L101.61,71a.88.88,0,0,1-.9.7.87.87,0,0,1-.61-.23,1,1,0,0,1-.31-.62L98.37,60.31a5.26,5.26,0,0,1-.06-.58.75.75,0,0,1,.23-.57.81.81,0,0,1,.6-.22.71.71,0,0,1,.78.72L101,68.28l1.69-5.81a.83.83,0,0,1,.85-.69.87.87,0,0,1,.84.71l1.86,5.88,1.08-8.71A.7.7,0,0,1,108.07,58.94Z" transform="translate(-15.59 -20.07)" style="fill:#ccc"/><path d="M120.11,66.63c0,.61-.27.91-.81.91h-6.8a3.07,3.07,0,0,0,.91,2.15,3,3,0,0,0,2.18.81,3.22,3.22,0,0,0,1.54-.33,3.15,3.15,0,0,0,1.15-1.08.78.78,0,0,1,.64-.43.73.73,0,0,1,.56.22.67.67,0,0,1,.22.52,1.36,1.36,0,0,1-.24.68,4.32,4.32,0,0,1-3.78,1.82A4.67,4.67,0,0,1,110.86,67a4.77,4.77,0,0,1,1.33-3.49,4.55,4.55,0,0,1,3.4-1.37,4.45,4.45,0,0,1,3.24,1.26A4.3,4.3,0,0,1,120.11,66.63Zm-7.58-.4h5.94a2.7,2.7,0,0,0-.87-1.92,2.81,2.81,0,0,0-2-.74,3,3,0,0,0-2.09.73A2.93,2.93,0,0,0,112.53,66.23Z" transform="translate(-15.59 -20.07)" style="fill:#ccc"/><path d="M127.49,62.18a4.35,4.35,0,0,1,3.28,1.37A4.87,4.87,0,0,1,132.06,67a4.94,4.94,0,0,1-1.26,3.49,4.25,4.25,0,0,1-3.25,1.37,4,4,0,0,1-3.28-1.35v.27c0,.6-.26.9-.79.9s-.83-.3-.83-.9v-11c0-.6.28-.9.83-.9s.79.3.79.9v3.73a3.56,3.56,0,0,1,1.4-1A4.45,4.45,0,0,1,127.49,62.18Zm-.18,8.28a3,3,0,0,0,2.29-.95,3.91,3.91,0,0,0,0-4.94,3.21,3.21,0,0,0-4.56,0,3.91,3.91,0,0,0,0,4.94A3,3,0,0,0,127.31,70.46Z" transform="translate(-15.59 -20.07)" style="fill:#ccc"/><path d="M139.8,71.9a3.3,3.3,0,0,1-2.44-.82,3.14,3.14,0,0,1-.83-2.35l0-4.84h-1.62a.83.83,0,0,1-.58-.19.68.68,0,0,1-.22-.53.67.67,0,0,1,.22-.53.83.83,0,0,1,.58-.19h1.62V59.84c0-.6.27-.9.82-.9s.8.3.8.9v2.61h3.54a.85.85,0,0,1,.58.19.66.66,0,0,1,.21.53.68.68,0,0,1-.21.53.85.85,0,0,1-.58.19h-3.54l0,4.72a2,2,0,0,0,.39,1.37,1.61,1.61,0,0,0,1.26.44,2.34,2.34,0,0,0,1.71-.73.91.91,0,0,1,.62-.33.74.74,0,0,1,.57.22.7.7,0,0,1,.22.54,1.06,1.06,0,0,1-.27.63A3.57,3.57,0,0,1,139.8,71.9Z" transform="translate(-15.59 -20.07)" style="fill:#ccc"/><path d="M155.21,66.63c0,.61-.27.91-.81.91h-6.8a3.07,3.07,0,0,0,.91,2.15,3,3,0,0,0,2.18.81,3.22,3.22,0,0,0,1.54-.33,3.15,3.15,0,0,0,1.15-1.08.78.78,0,0,1,.64-.43.73.73,0,0,1,.56.22.67.67,0,0,1,.22.52,1.36,1.36,0,0,1-.24.68,4.32,4.32,0,0,1-3.78,1.82A4.67,4.67,0,0,1,146,67a4.77,4.77,0,0,1,1.33-3.49,4.55,4.55,0,0,1,3.4-1.37,4.45,4.45,0,0,1,3.24,1.26A4.3,4.3,0,0,1,155.21,66.63Zm-7.58-.4h5.94a2.7,2.7,0,0,0-.87-1.92,2.81,2.81,0,0,0-2-.74,3,3,0,0,0-2.09.73A2.93,2.93,0,0,0,147.63,66.23Z" transform="translate(-15.59 -20.07)" style="fill:#ccc"/><path d="M162.59,71.9a4.63,4.63,0,0,1-3.44-1.35,5.3,5.3,0,0,1,0-7,4.63,4.63,0,0,1,3.44-1.35,4.91,4.91,0,0,1,2.5.63,3.37,3.37,0,0,1,1.53,1.67,1.42,1.42,0,0,1,.11.49.68.68,0,0,1-.22.53.79.79,0,0,1-.55.21.81.81,0,0,1-.78-.54,2.52,2.52,0,0,0-1-1.15,3.28,3.28,0,0,0-3.85.52,4,4,0,0,0,0,5,2.92,2.92,0,0,0,2.28.94,2.63,2.63,0,0,0,2.61-1.73.79.79,0,0,1,.76-.54.76.76,0,0,1,.55.23.74.74,0,0,1,.22.55,1.14,1.14,0,0,1-.07.41,3.66,3.66,0,0,1-1.53,1.84A4.75,4.75,0,0,1,162.59,71.9Z" transform="translate(-15.59 -20.07)" style="fill:#ccc"/><path d="M174.33,62.18a3.65,3.65,0,0,1,3.89,3.92v4.72c0,.6-.27.9-.8.9s-.82-.3-.82-.9V66.34c0-1.81-.86-2.72-2.56-2.72a2.58,2.58,0,0,0-1.95.75,2.74,2.74,0,0,0-.73,2v4.43c0,.6-.27.9-.79.9s-.83-.3-.83-.9V59.68c0-.6.27-.9.83-.9s.79.3.79.9v3.71A3.66,3.66,0,0,1,174.33,62.18Z" transform="translate(-15.59 -20.07)" style="fill:#ccc"/><path d="M119.21,54.61H100.45A2.19,2.19,0,0,1,98.83,54a2.23,2.23,0,0,1-.64-1.62V22.57c0-1.67.79-2.5,2.36-2.5a2.21,2.21,0,0,1,1.69.66,2.63,2.63,0,0,1,.61,1.84V50.3h16.36a2.52,2.52,0,0,1,1.77.59A2.25,2.25,0,0,1,121,54,2.52,2.52,0,0,1,119.21,54.61Z" transform="translate(-15.59 -20.07)" style="fill:#fff"/><path d="M136.22,55.35a12.73,12.73,0,0,1-9.43-3.72,12.93,12.93,0,0,1-3.7-9.51,13.06,13.06,0,0,1,3.62-9.51A12.39,12.39,0,0,1,136,28.89a12.06,12.06,0,0,1,8.8,3.43,11.65,11.65,0,0,1,3.5,8.67c0,1.67-.73,2.5-2.2,2.5H127.55a9.32,9.32,0,0,0,.63,3,7.94,7.94,0,0,0,3,3.67,8.47,8.47,0,0,0,4.8,1.33,9.06,9.06,0,0,0,4.19-.88,8.84,8.84,0,0,0,3.11-2.94A2.18,2.18,0,0,1,145,46.53a2,2,0,0,1,1.52.59,1.93,1.93,0,0,1,.59,1.42,3.89,3.89,0,0,1-.64,1.86Q143,55.35,136.22,55.35Zm-8.63-15.44h16.22a7.47,7.47,0,0,0-2.37-5.21,7.71,7.71,0,0,0-5.47-2,8.65,8.65,0,0,0-4.65,1.25,7.93,7.93,0,0,0-3,3.46A9.25,9.25,0,0,0,127.59,39.91Z" transform="translate(-15.59 -20.07)" style="fill:#fff"/><path d="M164.83,55.35a12.74,12.74,0,0,1-9.43-3.72,12.93,12.93,0,0,1-3.7-9.51,13.07,13.07,0,0,1,3.63-9.51,12.36,12.36,0,0,1,9.26-3.72,12,12,0,0,1,8.79,3.43A11.62,11.62,0,0,1,176.89,41c0,1.67-.74,2.5-2.21,2.5H156.16a9.58,9.58,0,0,0,.64,3,7.87,7.87,0,0,0,3,3.67,8.47,8.47,0,0,0,4.8,1.33,9.12,9.12,0,0,0,4.19-.88,9,9,0,0,0,3.11-2.94,2.17,2.17,0,0,1,1.76-1.18,2,2,0,0,1,1.52.59,1.89,1.89,0,0,1,.59,1.42,3.78,3.78,0,0,1-.64,1.86Q171.64,55.35,164.83,55.35Zm-8.62-15.44h16.22a7.43,7.43,0,0,0-2.38-5.21,7.67,7.67,0,0,0-5.46-2,8.66,8.66,0,0,0-4.66,1.25,7.85,7.85,0,0,0-3,3.46A9.25,9.25,0,0,0,156.21,39.91Z" transform="translate(-15.59 -20.07)" style="fill:#fff"/><path d="M184,54.86a2.07,2.07,0,0,1-1.61-.64,2.45,2.45,0,0,1-.59-1.76V31.78a2.45,2.45,0,0,1,.59-1.76,2.07,2.07,0,0,1,1.61-.64,1.85,1.85,0,0,1,1.57.64,2.65,2.65,0,0,1,.54,1.71,8.16,8.16,0,0,1,1.62-1.47,9.47,9.47,0,0,1,5-1.37,10.21,10.21,0,0,1,5.73,1.57,7.45,7.45,0,0,1,2.2,2.25l.1-.1a9.5,9.5,0,0,1,8.09-3.72,10.72,10.72,0,0,1,7.59,2.55,9.08,9.08,0,0,1,2.75,7v14c0,1.6-.71,2.4-2.11,2.4a2.07,2.07,0,0,1-1.62-.64,2.5,2.5,0,0,1-.59-1.76v-13a7,7,0,0,0-1.59-4.87,5.7,5.7,0,0,0-4.43-1.74,6,6,0,0,0-4.56,1.76,6.8,6.8,0,0,0-1.67,4.85v13q0,2.4-2.1,2.4a2.07,2.07,0,0,1-1.62-.64,2.5,2.5,0,0,1-.59-1.76v-13a7.09,7.09,0,0,0-1.54-4.9,5.61,5.61,0,0,0-4.39-1.71,6,6,0,0,0-4.6,1.76,6.76,6.76,0,0,0-1.67,4.85v13C186.1,54.06,185.4,54.86,184,54.86Z" transform="translate(-15.59 -20.07)" style="fill:#fff"/><path d="M233.24,55.35a9.35,9.35,0,0,1-6.49-2.18,7.48,7.48,0,0,1-2.43-5.86A6.93,6.93,0,0,1,227,41.58a11.17,11.17,0,0,1,7.15-2.11,24.38,24.38,0,0,1,4.41.44,25.09,25.09,0,0,1,3.23.79V39.18a6.55,6.55,0,0,0-1.61-4.73,6,6,0,0,0-4.56-1.69A7.51,7.51,0,0,0,229,36.34a2.35,2.35,0,0,1-1.91,1.12,2.05,2.05,0,0,1-1.54-.56,2,2,0,0,1-.56-1.49,3.66,3.66,0,0,1,1-2.21q3.33-4.31,9.6-4.31a10.65,10.65,0,0,1,7.74,2.74,9.54,9.54,0,0,1,2.84,7.21V52.31q0,2.55-2.25,2.55a2.32,2.32,0,0,1-1.72-.64,2.83,2.83,0,0,1-.58-1.91,8.56,8.56,0,0,1-.74.64A12.32,12.32,0,0,1,233.24,55.35Zm5.34-11.86a20.42,20.42,0,0,0-4.12-.44,7.13,7.13,0,0,0-4.31,1.13,3.73,3.73,0,0,0-1.52,3.18A3.91,3.91,0,0,0,230,50.55a6,6,0,0,0,3.87,1.12,11.36,11.36,0,0,0,4.71-1,10.77,10.77,0,0,0,3.18-2.2V44.37C240.78,44.05,239.72,43.75,238.58,43.49Z" transform="translate(-15.59 -20.07)" style="fill:#fff"/><circle cx="6.48" cy="8.23" r="6.48" style="fill:#ff6601"/><circle cx="63.49" cy="8.23" r="6.48" style="fill:#fff"/><path d="M55.53,32.3a6.48,6.48,0,1,0-10.11-8.12l-.12.16-28,34.9-.14.15a6.48,6.48,0,0,0,10.11,8.12l.12-.17,28-34.89Z" transform="translate(-15.59 -20.07)" style="fill:#fff"/><path d="M71.35,47.94a6.48,6.48,0,0,0-10.09-8.1h0l0,.06-.13.15a1.67,1.67,0,0,0-.12.16L45.56,59.38l-.14.15a6.48,6.48,0,0,0,10.11,8.12,1,1,0,0,0,.12-.17l15.4-19.17.14-.15.12-.16,0-.06Z" transform="translate(-15.59 -20.07)" style="fill:#ff6601"/></g></svg>